<svg version="1.1" xmlns="http://www.w3.org/2000/svg" viewBox="0 0 240 240"  preserveAspectRatio="xMinYMin meet"><rect width="100%" height="100%" fill="white" cx="0" cy="0"/><path d="M4,4l8,0 0,8 -8,0 0,-8z M12,4l8,0 0,8 -8,0 0,-8z M20,4l8,0 0,8 -8,0 0,-8z M28,4l8,0 0,8 -8,0 0,-8z M36,4l8,0 0,8 -8,0 0,-8z M44,4l8,0 0,8 -8,0 0,-8z M52,4l8,0 0,8 -8,0 0,-8z M76,4l8,0 0,8 -8,0 0,-8z M100,4l8,0 0,8 -8,0 0,-8z M108,4l8,0 0,8 -8,0 0,-8z M116,4l8,0 0,8 -8,0 0,-8z M148,4l8,0 0,8 -8,0 0,-8z M180,4l8,0 0,8 -8,0 0,-8z M188,4l8,0 0,8 -8,0 0,-8z M196,4l8,0 0,8 -8,0 0,-8z M204,4l8,0 0,8 -8,0 0,-8z M212,4l8,0 0,8 -8,0 0,-8z M220,4l8,0 0,8 -8,0 0,-8z M228,4l8,0 0,8 -8,0 0,-8z M4,12l8,0 0,8 -8,0 0,-8z M52,12l8,0 0,8 -8,0 0,-8z M68,12l8,0 0,8 -8,0 0,-8z M84,12l8,0 0,8 -8,0 0,-8z M92,12l8,0 0,8 -8,0 0,-8z M100,12l8,0 0,8 -8,0 0,-8z M132,12l8,0 0,8 -8,0 0,-8z M148,12l8,0 0,8 -8,0 0,-8z M180,12l8,0 0,8 -8,0 0,-8z M228,12l8,0 0,8 -8,0 0,-8z M4,20l8,0 0,8 -8,0 0,-8z M20,20l8,0 0,8 -8,0 0,-8z M28,20l8,0 0,8 -8,0 0,-8z M36,20l8,0 0,8 -8,0 0,-8z M52,20l8,0 0,8 -8,0 0,-8z M68,20l8,0 0,8 -8,0 0,-8z M84,20l8,0 0,8 -8,0 0,-8z M92,20l8,0 0,8 -8,0 0,-8z M116,20l8,0 0,8 -8,0 0,-8z M132,20l8,0 0,8 -8,0 0,-8z M156,20l8,0 0,8 -8,0 0,-8z M164,20l8,0 0,8 -8,0 0,-8z M180,20l8,0 0,8 -8,0 0,-8z M196,20l8,0 0,8 -8,0 0,-8z M204,20l8,0 0,8 -8,0 0,-8z M212,20l8,0 0,8 -8,0 0,-8z M228,20l8,0 0,8 -8,0 0,-8z M4,28l8,0 0,8 -8,0 0,-8z M20,28l8,0 0,8 -8,0 0,-8z M28,28l8,0 0,8 -8,0 0,-8z M36,28l8,0 0,8 -8,0 0,-8z M52,28l8,0 0,8 -8,0 0,-8z M68,28l8,0 0,8 -8,0 0,-8z M108,28l8,0 0,8 -8,0 0,-8z M132,28l8,0 0,8 -8,0 0,-8z M140,28l8,0 0,8 -8,0 0,-8z M156,28l8,0 0,8 -8,0 0,-8z M164,28l8,0 0,8 -8,0 0,-8z M180,28l8,0 0,8 -8,0 0,-8z M196,28l8,0 0,8 -8,0 0,-8z M204,28l8,0 0,8 -8,0 0,-8z M212,28l8,0 0,8 -8,0 0,-8z M228,28l8,0 0,8 -8,0 0,-8z M4,36l8,0 0,8 -8,0 0,-8z M20,36l8,0 0,8 -8,0 0,-8z M28,36l8,0 0,8 -8,0 0,-8z M36,36l8,0 0,8 -8,0 0,-8z M52,36l8,0 0,8 -8,0 0,-8z M84,36l8,0 0,8 -8,0 0,-8z M92,36l8,0 0,8 -8,0 0,-8z M108,36l8,0 0,8 -8,0 0,-8z M132,36l8,0 0,8 -8,0 0,-8z M140,36l8,0 0,8 -8,0 0,-8z M148,36l8,0 0,8 -8,0 0,-8z M156,36l8,0 0,8 -8,0 0,-8z M180,36l8,0 0,8 -8,0 0,-8z M196,36l8,0 0,8 -8,0 0,-8z M204,36l8,0 0,8 -8,0 0,-8z M212,36l8,0 0,8 -8,0 0,-8z M228,36l8,0 0,8 -8,0 0,-8z M4,44l8,0 0,8 -8,0 0,-8z M52,44l8,0 0,8 -8,0 0,-8z M76,44l8,0 0,8 -8,0 0,-8z M116,44l8,0 0,8 -8,0 0,-8z M132,44l8,0 0,8 -8,0 0,-8z M140,44l8,0 0,8 -8,0 0,-8z M180,44l8,0 0,8 -8,0 0,-8z M228,44l8,0 0,8 -8,0 0,-8z M4,52l8,0 0,8 -8,0 0,-8z M12,52l8,0 0,8 -8,0 0,-8z M20,52l8,0 0,8 -8,0 0,-8z M28,52l8,0 0,8 -8,0 0,-8z M36,52l8,0 0,8 -8,0 0,-8z M44,52l8,0 0,8 -8,0 0,-8z M52,52l8,0 0,8 -8,0 0,-8z M68,52l8,0 0,8 -8,0 0,-8z M84,52l8,0 0,8 -8,0 0,-8z M100,52l8,0 0,8 -8,0 0,-8z M116,52l8,0 0,8 -8,0 0,-8z M132,52l8,0 0,8 -8,0 0,-8z M148,52l8,0 0,8 -8,0 0,-8z M164,52l8,0 0,8 -8,0 0,-8z M180,52l8,0 0,8 -8,0 0,-8z M188,52l8,0 0,8 -8,0 0,-8z M196,52l8,0 0,8 -8,0 0,-8z M204,52l8,0 0,8 -8,0 0,-8z M212,52l8,0 0,8 -8,0 0,-8z M220,52l8,0 0,8 -8,0 0,-8z M228,52l8,0 0,8 -8,0 0,-8z M68,60l8,0 0,8 -8,0 0,-8z M76,60l8,0 0,8 -8,0 0,-8z M84,60l8,0 0,8 -8,0 0,-8z M116,60l8,0 0,8 -8,0 0,-8z M132,60l8,0 0,8 -8,0 0,-8z M156,60l8,0 0,8 -8,0 0,-8z M4,68l8,0 0,8 -8,0 0,-8z M52,68l8,0 0,8 -8,0 0,-8z M68,68l8,0 0,8 -8,0 0,-8z M76,68l8,0 0,8 -8,0 0,-8z M108,68l8,0 0,8 -8,0 0,-8z M116,68l8,0 0,8 -8,0 0,-8z M140,68l8,0 0,8 -8,0 0,-8z M148,68l8,0 0,8 -8,0 0,-8z M172,68l8,0 0,8 -8,0 0,-8z M180,68l8,0 0,8 -8,0 0,-8z M204,68l8,0 0,8 -8,0 0,-8z M212,68l8,0 0,8 -8,0 0,-8z M220,68l8,0 0,8 -8,0 0,-8z M20,76l8,0 0,8 -8,0 0,-8z M28,76l8,0 0,8 -8,0 0,-8z M36,76l8,0 0,8 -8,0 0,-8z M68,76l8,0 0,8 -8,0 0,-8z M76,76l8,0 0,8 -8,0 0,-8z M92,76l8,0 0,8 -8,0 0,-8z M100,76l8,0 0,8 -8,0 0,-8z M116,76l8,0 0,8 -8,0 0,-8z M124,76l8,0 0,8 -8,0 0,-8z M132,76l8,0 0,8 -8,0 0,-8z M140,76l8,0 0,8 -8,0 0,-8z M148,76l8,0 0,8 -8,0 0,-8z M156,76l8,0 0,8 -8,0 0,-8z M188,76l8,0 0,8 -8,0 0,-8z M196,76l8,0 0,8 -8,0 0,-8z M212,76l8,0 0,8 -8,0 0,-8z M220,76l8,0 0,8 -8,0 0,-8z M12,84l8,0 0,8 -8,0 0,-8z M20,84l8,0 0,8 -8,0 0,-8z M28,84l8,0 0,8 -8,0 0,-8z M52,84l8,0 0,8 -8,0 0,-8z M84,84l8,0 0,8 -8,0 0,-8z M100,84l8,0 0,8 -8,0 0,-8z M116,84l8,0 0,8 -8,0 0,-8z M124,84l8,0 0,8 -8,0 0,-8z M140,84l8,0 0,8 -8,0 0,-8z M164,84l8,0 0,8 -8,0 0,-8z M172,84l8,0 0,8 -8,0 0,-8z M188,84l8,0 0,8 -8,0 0,-8z M196,84l8,0 0,8 -8,0 0,-8z M12,92l8,0 0,8 -8,0 0,-8z M28,92l8,0 0,8 -8,0 0,-8z M36,92l8,0 0,8 -8,0 0,-8z M44,92l8,0 0,8 -8,0 0,-8z M76,92l8,0 0,8 -8,0 0,-8z M84,92l8,0 0,8 -8,0 0,-8z M92,92l8,0 0,8 -8,0 0,-8z M100,92l8,0 0,8 -8,0 0,-8z M116,92l8,0 0,8 -8,0 0,-8z M132,92l8,0 0,8 -8,0 0,-8z M164,92l8,0 0,8 -8,0 0,-8z M180,92l8,0 0,8 -8,0 0,-8z M196,92l8,0 0,8 -8,0 0,-8z M204,92l8,0 0,8 -8,0 0,-8z M4,100l8,0 0,8 -8,0 0,-8z M12,100l8,0 0,8 -8,0 0,-8z M52,100l8,0 0,8 -8,0 0,-8z M60,100l8,0 0,8 -8,0 0,-8z M100,100l8,0 0,8 -8,0 0,-8z M108,100l8,0 0,8 -8,0 0,-8z M116,100l8,0 0,8 -8,0 0,-8z M124,100l8,0 0,8 -8,0 0,-8z M156,100l8,0 0,8 -8,0 0,-8z M180,100l8,0 0,8 -8,0 0,-8z M188,100l8,0 0,8 -8,0 0,-8z M228,100l8,0 0,8 -8,0 0,-8z M4,108l8,0 0,8 -8,0 0,-8z M12,108l8,0 0,8 -8,0 0,-8z M36,108l8,0 0,8 -8,0 0,-8z M68,108l8,0 0,8 -8,0 0,-8z M76,108l8,0 0,8 -8,0 0,-8z M92,108l8,0 0,8 -8,0 0,-8z M100,108l8,0 0,8 -8,0 0,-8z M108,108l8,0 0,8 -8,0 0,-8z M124,108l8,0 0,8 -8,0 0,-8z M148,108l8,0 0,8 -8,0 0,-8z M156,108l8,0 0,8 -8,0 0,-8z M164,108l8,0 0,8 -8,0 0,-8z M180,108l8,0 0,8 -8,0 0,-8z M188,108l8,0 0,8 -8,0 0,-8z M196,108l8,0 0,8 -8,0 0,-8z M220,108l8,0 0,8 -8,0 0,-8z M228,108l8,0 0,8 -8,0 0,-8z M4,116l8,0 0,8 -8,0 0,-8z M12,116l8,0 0,8 -8,0 0,-8z M20,116l8,0 0,8 -8,0 0,-8z M28,116l8,0 0,8 -8,0 0,-8z M52,116l8,0 0,8 -8,0 0,-8z M60,116l8,0 0,8 -8,0 0,-8z M68,116l8,0 0,8 -8,0 0,-8z M76,116l8,0 0,8 -8,0 0,-8z M100,116l8,0 0,8 -8,0 0,-8z M108,116l8,0 0,8 -8,0 0,-8z M116,116l8,0 0,8 -8,0 0,-8z M124,116l8,0 0,8 -8,0 0,-8z M132,116l8,0 0,8 -8,0 0,-8z M140,116l8,0 0,8 -8,0 0,-8z M148,116l8,0 0,8 -8,0 0,-8z M172,116l8,0 0,8 -8,0 0,-8z M180,116l8,0 0,8 -8,0 0,-8z M204,116l8,0 0,8 -8,0 0,-8z M212,116l8,0 0,8 -8,0 0,-8z M4,124l8,0 0,8 -8,0 0,-8z M20,124l8,0 0,8 -8,0 0,-8z M28,124l8,0 0,8 -8,0 0,-8z M60,124l8,0 0,8 -8,0 0,-8z M68,124l8,0 0,8 -8,0 0,-8z M76,124l8,0 0,8 -8,0 0,-8z M92,124l8,0 0,8 -8,0 0,-8z M100,124l8,0 0,8 -8,0 0,-8z M108,124l8,0 0,8 -8,0 0,-8z M116,124l8,0 0,8 -8,0 0,-8z M164,124l8,0 0,8 -8,0 0,-8z M172,124l8,0 0,8 -8,0 0,-8z M180,124l8,0 0,8 -8,0 0,-8z M196,124l8,0 0,8 -8,0 0,-8z M212,124l8,0 0,8 -8,0 0,-8z M228,124l8,0 0,8 -8,0 0,-8z M4,132l8,0 0,8 -8,0 0,-8z M12,132l8,0 0,8 -8,0 0,-8z M36,132l8,0 0,8 -8,0 0,-8z M52,132l8,0 0,8 -8,0 0,-8z M60,132l8,0 0,8 -8,0 0,-8z M76,132l8,0 0,8 -8,0 0,-8z M100,132l8,0 0,8 -8,0 0,-8z M116,132l8,0 0,8 -8,0 0,-8z M140,132l8,0 0,8 -8,0 0,-8z M156,132l8,0 0,8 -8,0 0,-8z M172,132l8,0 0,8 -8,0 0,-8z M188,132l8,0 0,8 -8,0 0,-8z M204,132l8,0 0,8 -8,0 0,-8z M212,132l8,0 0,8 -8,0 0,-8z M4,140l8,0 0,8 -8,0 0,-8z M12,140l8,0 0,8 -8,0 0,-8z M28,140l8,0 0,8 -8,0 0,-8z M60,140l8,0 0,8 -8,0 0,-8z M68,140l8,0 0,8 -8,0 0,-8z M76,140l8,0 0,8 -8,0 0,-8z M100,140l8,0 0,8 -8,0 0,-8z M124,140l8,0 0,8 -8,0 0,-8z M140,140l8,0 0,8 -8,0 0,-8z M148,140l8,0 0,8 -8,0 0,-8z M156,140l8,0 0,8 -8,0 0,-8z M164,140l8,0 0,8 -8,0 0,-8z M180,140l8,0 0,8 -8,0 0,-8z M188,140l8,0 0,8 -8,0 0,-8z M196,140l8,0 0,8 -8,0 0,-8z M212,140l8,0 0,8 -8,0 0,-8z M220,140l8,0 0,8 -8,0 0,-8z M228,140l8,0 0,8 -8,0 0,-8z M4,148l8,0 0,8 -8,0 0,-8z M12,148l8,0 0,8 -8,0 0,-8z M44,148l8,0 0,8 -8,0 0,-8z M52,148l8,0 0,8 -8,0 0,-8z M60,148l8,0 0,8 -8,0 0,-8z M68,148l8,0 0,8 -8,0 0,-8z M76,148l8,0 0,8 -8,0 0,-8z M100,148l8,0 0,8 -8,0 0,-8z M108,148l8,0 0,8 -8,0 0,-8z M116,148l8,0 0,8 -8,0 0,-8z M124,148l8,0 0,8 -8,0 0,-8z M132,148l8,0 0,8 -8,0 0,-8z M156,148l8,0 0,8 -8,0 0,-8z M164,148l8,0 0,8 -8,0 0,-8z M188,148l8,0 0,8 -8,0 0,-8z M204,148l8,0 0,8 -8,0 0,-8z M228,148l8,0 0,8 -8,0 0,-8z M4,156l8,0 0,8 -8,0 0,-8z M28,156l8,0 0,8 -8,0 0,-8z M36,156l8,0 0,8 -8,0 0,-8z M76,156l8,0 0,8 -8,0 0,-8z M92,156l8,0 0,8 -8,0 0,-8z M100,156l8,0 0,8 -8,0 0,-8z M116,156l8,0 0,8 -8,0 0,-8z M132,156l8,0 0,8 -8,0 0,-8z M164,156l8,0 0,8 -8,0 0,-8z M180,156l8,0 0,8 -8,0 0,-8z M196,156l8,0 0,8 -8,0 0,-8z M4,164l8,0 0,8 -8,0 0,-8z M36,164l8,0 0,8 -8,0 0,-8z M52,164l8,0 0,8 -8,0 0,-8z M60,164l8,0 0,8 -8,0 0,-8z M92,164l8,0 0,8 -8,0 0,-8z M100,164l8,0 0,8 -8,0 0,-8z M124,164l8,0 0,8 -8,0 0,-8z M132,164l8,0 0,8 -8,0 0,-8z M140,164l8,0 0,8 -8,0 0,-8z M164,164l8,0 0,8 -8,0 0,-8z M172,164l8,0 0,8 -8,0 0,-8z M180,164l8,0 0,8 -8,0 0,-8z M188,164l8,0 0,8 -8,0 0,-8z M196,164l8,0 0,8 -8,0 0,-8z M212,164l8,0 0,8 -8,0 0,-8z M220,164l8,0 0,8 -8,0 0,-8z M228,164l8,0 0,8 -8,0 0,-8z M68,172l8,0 0,8 -8,0 0,-8z M76,172l8,0 0,8 -8,0 0,-8z M84,172l8,0 0,8 -8,0 0,-8z M108,172l8,0 0,8 -8,0 0,-8z M124,172l8,0 0,8 -8,0 0,-8z M140,172l8,0 0,8 -8,0 0,-8z M148,172l8,0 0,8 -8,0 0,-8z M156,172l8,0 0,8 -8,0 0,-8z M164,172l8,0 0,8 -8,0 0,-8z M196,172l8,0 0,8 -8,0 0,-8z M204,172l8,0 0,8 -8,0 0,-8z M4,180l8,0 0,8 -8,0 0,-8z M12,180l8,0 0,8 -8,0 0,-8z M20,180l8,0 0,8 -8,0 0,-8z M28,180l8,0 0,8 -8,0 0,-8z M36,180l8,0 0,8 -8,0 0,-8z M44,180l8,0 0,8 -8,0 0,-8z M52,180l8,0 0,8 -8,0 0,-8z M84,180l8,0 0,8 -8,0 0,-8z M100,180l8,0 0,8 -8,0 0,-8z M108,180l8,0 0,8 -8,0 0,-8z M116,180l8,0 0,8 -8,0 0,-8z M124,180l8,0 0,8 -8,0 0,-8z M132,180l8,0 0,8 -8,0 0,-8z M140,180l8,0 0,8 -8,0 0,-8z M156,180l8,0 0,8 -8,0 0,-8z M164,180l8,0 0,8 -8,0 0,-8z M180,180l8,0 0,8 -8,0 0,-8z M196,180l8,0 0,8 -8,0 0,-8z M204,180l8,0 0,8 -8,0 0,-8z M212,180l8,0 0,8 -8,0 0,-8z M4,188l8,0 0,8 -8,0 0,-8z M52,188l8,0 0,8 -8,0 0,-8z M84,188l8,0 0,8 -8,0 0,-8z M100,188l8,0 0,8 -8,0 0,-8z M108,188l8,0 0,8 -8,0 0,-8z M124,188l8,0 0,8 -8,0 0,-8z M148,188l8,0 0,8 -8,0 0,-8z M156,188l8,0 0,8 -8,0 0,-8z M164,188l8,0 0,8 -8,0 0,-8z M196,188l8,0 0,8 -8,0 0,-8z M220,188l8,0 0,8 -8,0 0,-8z M228,188l8,0 0,8 -8,0 0,-8z M4,196l8,0 0,8 -8,0 0,-8z M20,196l8,0 0,8 -8,0 0,-8z M28,196l8,0 0,8 -8,0 0,-8z M36,196l8,0 0,8 -8,0 0,-8z M52,196l8,0 0,8 -8,0 0,-8z M76,196l8,0 0,8 -8,0 0,-8z M92,196l8,0 0,8 -8,0 0,-8z M108,196l8,0 0,8 -8,0 0,-8z M124,196l8,0 0,8 -8,0 0,-8z M132,196l8,0 0,8 -8,0 0,-8z M156,196l8,0 0,8 -8,0 0,-8z M164,196l8,0 0,8 -8,0 0,-8z M172,196l8,0 0,8 -8,0 0,-8z M180,196l8,0 0,8 -8,0 0,-8z M188,196l8,0 0,8 -8,0 0,-8z M196,196l8,0 0,8 -8,0 0,-8z M204,196l8,0 0,8 -8,0 0,-8z M228,196l8,0 0,8 -8,0 0,-8z M4,204l8,0 0,8 -8,0 0,-8z M20,204l8,0 0,8 -8,0 0,-8z M28,204l8,0 0,8 -8,0 0,-8z M36,204l8,0 0,8 -8,0 0,-8z M52,204l8,0 0,8 -8,0 0,-8z M108,204l8,0 0,8 -8,0 0,-8z M124,204l8,0 0,8 -8,0 0,-8z M132,204l8,0 0,8 -8,0 0,-8z M140,204l8,0 0,8 -8,0 0,-8z M148,204l8,0 0,8 -8,0 0,-8z M156,204l8,0 0,8 -8,0 0,-8z M172,204l8,0 0,8 -8,0 0,-8z M188,204l8,0 0,8 -8,0 0,-8z M204,204l8,0 0,8 -8,0 0,-8z M212,204l8,0 0,8 -8,0 0,-8z M228,204l8,0 0,8 -8,0 0,-8z M4,212l8,0 0,8 -8,0 0,-8z M20,212l8,0 0,8 -8,0 0,-8z M28,212l8,0 0,8 -8,0 0,-8z M36,212l8,0 0,8 -8,0 0,-8z M52,212l8,0 0,8 -8,0 0,-8z M76,212l8,0 0,8 -8,0 0,-8z M92,212l8,0 0,8 -8,0 0,-8z M100,212l8,0 0,8 -8,0 0,-8z M124,212l8,0 0,8 -8,0 0,-8z M132,212l8,0 0,8 -8,0 0,-8z M140,212l8,0 0,8 -8,0 0,-8z M164,212l8,0 0,8 -8,0 0,-8z M172,212l8,0 0,8 -8,0 0,-8z M180,212l8,0 0,8 -8,0 0,-8z M188,212l8,0 0,8 -8,0 0,-8z M196,212l8,0 0,8 -8,0 0,-8z M204,212l8,0 0,8 -8,0 0,-8z M212,212l8,0 0,8 -8,0 0,-8z M220,212l8,0 0,8 -8,0 0,-8z M4,220l8,0 0,8 -8,0 0,-8z M52,220l8,0 0,8 -8,0 0,-8z M76,220l8,0 0,8 -8,0 0,-8z M84,220l8,0 0,8 -8,0 0,-8z M108,220l8,0 0,8 -8,0 0,-8z M116,220l8,0 0,8 -8,0 0,-8z M148,220l8,0 0,8 -8,0 0,-8z M172,220l8,0 0,8 -8,0 0,-8z M180,220l8,0 0,8 -8,0 0,-8z M188,220l8,0 0,8 -8,0 0,-8z M196,220l8,0 0,8 -8,0 0,-8z M204,220l8,0 0,8 -8,0 0,-8z M212,220l8,0 0,8 -8,0 0,-8z M228,220l8,0 0,8 -8,0 0,-8z M4,228l8,0 0,8 -8,0 0,-8z M12,228l8,0 0,8 -8,0 0,-8z M20,228l8,0 0,8 -8,0 0,-8z M28,228l8,0 0,8 -8,0 0,-8z M36,228l8,0 0,8 -8,0 0,-8z M44,228l8,0 0,8 -8,0 0,-8z M52,228l8,0 0,8 -8,0 0,-8z M68,228l8,0 0,8 -8,0 0,-8z M76,228l8,0 0,8 -8,0 0,-8z M92,228l8,0 0,8 -8,0 0,-8z M100,228l8,0 0,8 -8,0 0,-8z M124,228l8,0 0,8 -8,0 0,-8z M140,228l8,0 0,8 -8,0 0,-8z M156,228l8,0 0,8 -8,0 0,-8z M180,228l8,0 0,8 -8,0 0,-8z M196,228l8,0 0,8 -8,0 0,-8z M212,228l8,0 0,8 -8,0 0,-8z " stroke="transparent" fill="black"/></svg>